#N canvas 253 74 1187 758 12;
#X obj 562 33 oscparse;
#X obj 563 56 list trim;
#X floatatom 353 244 5 0 0 0 - - -;
#X obj 562 11 netreceive -u -b 32901;
#X obj 355 196 route x;
#X floatatom 418 223 5 0 0 0 - - -;
#X obj 417 195 route y;
#X floatatom 479 224 5 0 0 0 - - -;
#X floatatom 242 167 5 0 0 0 - - -;
#X obj 479 194 route z;
#X obj 458 117 route accell;
#X floatatom 796 401 5 0 0 0 - - -;
#X obj 250 116 route hand;
#X obj 635 119 route merge;
#X obj 547 388 output~;
#X obj 1043 641 bng 15 250 50 0 empty empty empty 0 -6 0 8 -262144
-1 -1;
#X obj 1073 640 bng 15 250 50 0 empty empty empty 0 -6 0 8 -262144
-1 -1;
#X obj 1043 668 1;
#X obj 1076 667 0;
#X obj 132 433 *~;
#X floatatom 1060 697 5 0 0 0 - - -;
#X obj 116 556 send~ out;
#X obj 477 318 receive~ out;
#X obj 133 459 +~;
#X obj 218 374 *~;
#X msg 798 458 1;
#X obj 799 545 % 5, f 4;
#X floatatom 798 515 5 0 0 0 - - -;
#X obj 798 485 + 1;
#X floatatom 798 581 5 0 0 0 - - -;
#X obj 797 611 sel 0 1 2 3 4;
#X floatatom 712 716 5 0 0 0 - - -;
#X obj 712 685 + 1;
#X msg 711 651 1;
#X floatatom 776 712 5 0 0 0 - - -;
#X obj 775 678 + 1;
#X msg 774 644 1;
#X floatatom 833 711 5 0 0 0 - - -;
#X obj 839 680 + 1;
#X msg 843 648 1;
#X floatatom 889 712 5 0 0 0 - - -;
#X obj 888 678 + 1;
#X msg 887 644 1;
#X floatatom 935 714 5 0 0 0 - - -;
#X obj 934 680 + 1;
#X msg 933 646 1;
#X obj 796 427 sel 0 1;
#N canvas 90 145 458 609 pitchshift 0;
#X obj 22 37 delwrite~ G09-del 5000;
#X obj 19 11 inlet~;
#X obj 93 304 *~;
#X obj 216 241 line~;
#X floatatom 228 118 0 0 0 0 - - -;
#X obj 216 215 pack 0 200;
#X floatatom 20 113 6 0 0 0 - - -;
#X obj 30 205 /;
#X obj 157 135 * 0.001;
#X obj 325 311 line~;
#X obj 325 286 pack 0 200;
#X floatatom 325 235 0 0 0 0 - - -;
#X obj 325 209 r delay;
#X obj 93 330 +~;
#X obj 30 356 cos~;
#X obj 30 412 +~;
#X obj 117 263 wrap~;
#X obj 262 306 *~;
#X obj 262 339 +~;
#X obj 199 366 cos~;
#X obj 199 393 *~;
#X obj 157 162 t b f;
#X floatatom 30 231 6 0 0 0 - - -;
#X obj 117 236 +~ 0.5;
#X obj 30 304 -~ 0.5;
#X obj 30 330 *~ 0.5;
#X obj 199 305 -~ 0.5;
#X obj 199 338 *~ 0.5;
#X obj 30 142 - 1;
#X obj 30 168 * -1;
#X text 93 109 speed;
#X text 92 123 change;
#X text 65 198 tape head;
#X obj 30 262 phasor~;
#X obj 325 262 max 1.5;
#X obj 228 145 max 1;
#X text 66 211 rotation freq;
#X obj 93 356 vd~ G09-del;
#X obj 262 368 vd~ G09-del;
#X obj 30 383 *~;
#X obj 31 463 outlet~;
#X obj 15 81 receive transpose;
#X obj 110 433 r pitchshift-multi;
#X obj 228 79 r delaysub;
#X obj 111 461 *~ 10;
#X floatatom 200 480 5 0 0 0 - - -;
#X connect 1 0 0 0;
#X connect 2 0 13 0;
#X connect 3 0 2 1;
#X connect 3 0 17 1;
#X connect 4 0 35 0;
#X connect 5 0 3 0;
#X connect 6 0 28 0;
#X connect 7 0 22 0;
#X connect 8 0 21 0;
#X connect 9 0 13 1;
#X connect 9 0 18 1;
#X connect 10 0 9 0;
#X connect 11 0 34 0;
#X connect 12 0 11 0;
#X connect 13 0 37 0;
#X connect 14 0 39 0;
#X connect 15 0 40 0;
#X connect 16 0 17 0;
#X connect 16 0 26 0;
#X connect 17 0 18 0;
#X connect 18 0 38 0;
#X connect 19 0 20 0;
#X connect 20 0 15 1;
#X connect 21 0 7 0;
#X connect 21 1 7 1;
#X connect 22 0 33 0;
#X connect 23 0 16 0;
#X connect 24 0 25 0;
#X connect 25 0 14 0;
#X connect 26 0 27 0;
#X connect 27 0 19 0;
#X connect 28 0 29 0;
#X connect 29 0 7 0;
#X connect 33 0 24 0;
#X connect 33 0 2 0;
#X connect 33 0 23 0;
#X connect 34 0 10 0;
#X connect 35 0 8 0;
#X connect 35 0 5 0;
#X connect 37 0 39 1;
#X connect 38 0 20 1;
#X connect 39 0 15 0;
#X connect 41 0 6 0;
#X connect 42 0 44 0;
#X connect 42 0 45 0;
#X connect 43 0 4 0;
#X connect 44 0 39 1;
#X restore 15 441 pd pitchshift;
#X obj 352 298 s transpose;
#X obj 1044 514 loadbang;
#X msg 1043 540 1;
#X obj 1043 594 tgl 15 0 empty empty empty 0 -6 0 8 -262144 -1 -1 1
1;
#X obj 1043 616 sel 0 1;
#X obj 1122 546 abs;
#X obj 132 408 *~;
#X obj 1123 583 * 100;
#N canvas 468 116 612 637 test-input 0;
#N canvas 0 0 450 300 (subpatch) 0;
#X array array1 176400 float 0;
#X coords 0 1 176399 -1 200 150 1;
#X restore 150 141 graph;
#X obj 139 518 tabread4~ array1;
#X obj 139 333 r totsamps;
#X obj 139 413 /;
#X obj 139 465 *~ 0;
#X obj 139 439 phasor~ 0;
#X obj 139 492 +~ 1;
#X msg 139 386 44100;
#X obj 139 360 t b f;
#X obj 182 469 r totsamps;
#X text 153 538 sample loop for;
#X text 153 555 test signal;
#X obj 162 30 loadbang;
#X obj 139 590 outlet~;
#X obj 393 169 r readfile;
#X obj 393 199 symbol;
#X msg 392 228 read -resize \$1 array1;
#X obj 392 256 soundfiler;
#X obj 392 284 s totsamps;
#X msg 161 64 \; readfile ./data/AM_ConvLoop120B-02.wav;
#X connect 1 0 13 0;
#X connect 2 0 8 0;
#X connect 3 0 5 0;
#X connect 4 0 6 0;
#X connect 5 0 4 0;
#X connect 6 0 1 0;
#X connect 7 0 3 0;
#X connect 8 0 7 0;
#X connect 8 1 3 1;
#X connect 9 0 4 1;
#X connect 12 0 19 0;
#X connect 14 0 15 0;
#X connect 15 0 16 0;
#X connect 16 0 17 0;
#X connect 17 0 18 0;
#X restore 15 414 pd test-input;
#X obj 16 590 delwrite~ echoline 2000;
#X obj 133 490 +~;
#X obj 1043 571 metro 500;
#X obj 231 501 delread~ echoline 1000;
#X floatatom 230 476 0 0 0 0 - - -;
#X obj 116 519 +~;
#X obj 175 374 +~ 0;
#X obj 442 565 s pitchshift-multi;
#X obj 230 526 *~ 0.7;
#X obj 20 535 *~;
#X obj 857 485 r counter;
#X obj 229 405 r delays;
#X obj 726 119 route init;
#X obj 982 360 loadbang;
#X obj 548 352 *~;
#X obj 562 118 route up;
#X floatatom 579 290 5 0 0 0 - - -;
#X msg 936 395 \; counter 0 \; delays 500 \; transpose 0.3 \; delaysub
100;
#X obj 352 270 * 1;
#X obj 441 539 * 0.025;
#X obj 579 317 / 100;
#X floatatom 289 167 5 0 0 0 - - -;
#X obj 345 115 route eraser;
#X obj 17 468 *~;
#X obj 316 347 abs;
#X obj 316 374 + 3;
#X obj 389 342 abs;
#N canvas 679 203 538 495 load-z-axis 0;
#X obj 23 17 loadbang;
#X obj 24 82 soundfiler;
#X obj 183 120 *~;
#X obj 26 120 expr 44100/$f1;
#X obj 29 179 phasor~;
#X msg 22 50 read -resize data/AM_GuitVerber120D-03.wav loop;
#X obj 28 149 1;
#X obj 182 178 tabread~ loop;
#X obj 192 257 outlet~;
#N canvas 0 22 450 278 (subpatch) 0;
#X array loop 352800 float 2;
#X coords 0 1 352800 -1 200 140 1;
#X restore 292 97 graph;
#X connect 0 0 5 0;
#X connect 1 0 2 1;
#X connect 1 0 3 0;
#X connect 2 0 7 0;
#X connect 3 0 6 0;
#X connect 4 0 2 0;
#X connect 5 0 1 0;
#X connect 6 0 4 0;
#X connect 7 0 8 0;
#X restore 221 322 pd load-z-axis;
#X obj 26 207 noise~;
#X obj 192 465 *~;
#X obj 289 216 *~ 1;
#X obj 25 236 osc~ 880;
#X connect 0 0 1 0;
#X connect 1 0 10 0;
#X connect 1 0 12 0;
#X connect 1 0 13 0;
#X connect 1 0 69 0;
#X connect 1 0 72 0;
#X connect 1 0 79 0;
#X connect 2 0 75 0;
#X connect 3 0 0 0;
#X connect 4 0 2 0;
#X connect 5 0 81 0;
#X connect 6 0 5 0;
#X connect 7 0 83 0;
#X connect 8 0 63 0;
#X connect 8 0 66 1;
#X connect 9 0 7 0;
#X connect 10 0 4 0;
#X connect 10 0 6 0;
#X connect 10 0 9 0;
#X connect 11 0 46 0;
#X connect 12 0 8 0;
#X connect 13 0 11 0;
#X connect 15 0 17 0;
#X connect 16 0 18 0;
#X connect 17 0 20 0;
#X connect 18 0 20 0;
#X connect 19 0 23 0;
#X connect 22 0 71 0;
#X connect 23 0 58 0;
#X connect 24 0 23 1;
#X connect 25 0 28 0;
#X connect 26 0 29 0;
#X connect 27 0 28 1;
#X connect 27 0 26 0;
#X connect 28 0 27 0;
#X connect 29 0 30 0;
#X connect 30 0 33 0;
#X connect 30 1 36 0;
#X connect 30 2 39 0;
#X connect 30 3 42 0;
#X connect 30 4 45 0;
#X connect 31 0 32 1;
#X connect 32 0 31 0;
#X connect 33 0 32 0;
#X connect 34 0 35 1;
#X connect 35 0 34 0;
#X connect 36 0 35 0;
#X connect 37 0 38 1;
#X connect 38 0 37 0;
#X connect 39 0 38 0;
#X connect 40 0 41 1;
#X connect 41 0 40 0;
#X connect 42 0 41 0;
#X connect 43 0 44 1;
#X connect 44 0 43 0;
#X connect 45 0 44 0;
#X connect 46 1 25 0;
#X connect 47 0 80 0;
#X connect 49 0 50 0;
#X connect 50 0 59 0;
#X connect 51 0 52 0;
#X connect 52 0 15 0;
#X connect 52 1 16 0;
#X connect 53 0 55 0;
#X connect 54 0 19 0;
#X connect 55 0 59 1;
#X connect 56 0 47 0;
#X connect 58 0 62 1;
#X connect 59 0 51 0;
#X connect 60 0 65 0;
#X connect 61 0 60 0;
#X connect 62 0 21 0;
#X connect 63 0 19 1;
#X connect 65 0 58 1;
#X connect 66 0 57 0;
#X connect 67 0 27 0;
#X connect 67 0 31 0;
#X connect 67 0 34 0;
#X connect 67 0 37 0;
#X connect 67 0 40 0;
#X connect 67 0 43 0;
#X connect 68 0 61 0;
#X connect 69 0 74 0;
#X connect 70 0 74 0;
#X connect 71 0 14 0;
#X connect 71 0 14 1;
#X connect 72 0 73 0;
#X connect 73 0 77 0;
#X connect 75 0 48 0;
#X connect 76 0 64 0;
#X connect 77 0 71 1;
#X connect 78 0 54 1;
#X connect 78 0 87 0;
#X connect 79 0 78 0;
#X connect 80 0 62 0;
#X connect 80 0 66 0;
#X connect 81 0 82 0;
#X connect 82 0 80 1;
#X connect 83 0 24 1;
#X connect 84 0 24 0;
#X connect 84 0 86 0;
#X connect 86 0 58 0;
#X connect 87 0 86 1;
