#N canvas 360 147 1418 829 12;
#X obj 15 36 oscparse;
#X obj 16 59 list trim;
#X obj 15 14 netreceive -u -b 32901;
#X obj 19 194 route accell;
#X obj 19 107 route hand;
#X obj 26 443 route merge;
#X obj 25 479 route init;
#X obj 14 150 route eraser;
#X floatatom 125 86 5 0 0 0 - - -;
#X floatatom 255 538 5 0 0 0 - - -;
#X floatatom 120 445 5 0 0 0 - - -;
#X floatatom 118 480 5 0 0 0 - - -;
#X floatatom 169 363 5 0 0 0 - - -;
#X obj 169 338 route x;
#X floatatom 168 313 5 0 0 0 - - -;
#X obj 167 285 route y;
#X floatatom 167 257 5 0 0 0 - - -;
#X obj 167 227 route z;
#X obj 498 292 *~;
#X obj 586 272 line~;
#X floatatom 402 249 0 0 0 0 - - -;
#X obj 402 363 cos~;
#X obj 402 319 +~;
#X obj 586 246 pack 0 50;
#X floatatom 586 193 0 0 0 0 - - -;
#X obj 586 220 / 100;
#X text 560 155 modulation index;
#X text 560 170 in hundredths;
#X text 399 206 carrier;
#X text 398 224 frequency;
#X text 483 211 frequency;
#X text 484 194 modulation;
#X text 307 260 carrier;
#X text 307 275 phase -->;
#X text 279 318 modulation-->;
#X text 285 362 waveform -->;
#X obj 402 276 phasor~;
#X obj 401 398 hip~;
#X text 682 226 ramped to avoid;
#X text 681 242 clicks.);
#X text 681 210 (the index is;
#X obj 207 10 loadbang;
#X obj 210 62 soundfiler;
#X obj 325 101 *~;
#X obj 212 100 expr 44100/$f1;
#X obj 213 154 phasor~;
#X obj 214 129 1;
#X obj 325 130 tabread~ loop;
#N canvas 0 22 450 278 (subpatch) 0;
#X array loop 352800 float 2;
#X coords 0 1 352800 -1 200 140 1;
#X restore 600 617 graph;
#N canvas 208 129 958 610 reverb 0;
#X obj 13 19 inlet~;
#X obj 13 43 reverb-echo echo-del1 5.43216;
#X obj 277 215 +~;
#X obj 319 215 +~;
#X obj 67 276 outlet~;
#X obj 137 276 outlet~;
#X obj 238 334 +~;
#X obj 347 335 +~;
#X obj 280 334 -~;
#X obj 387 334 -~;
#X obj 237 390 +~;
#X obj 281 391 +~;
#X obj 325 392 -~;
#X obj 364 392 -~;
#X obj 324 474 *~ 0;
#X obj 282 473 *~ 0;
#X obj 237 472 *~ 0;
#X obj 365 475 *~ 0;
#X obj 632 365 inlet;
#X obj 632 437 / 200;
#X obj 632 389 min 100;
#X obj 632 412 max 0;
#X obj 238 583 delwrite~ loop-del1 60;
#X obj 283 561 delwrite~ loop-del2 71.9345;
#X obj 364 515 delwrite~ loop-del4 95.945;
#X obj 298 154 delread~ loop-del1 60;
#X obj 340 179 delread~ loop-del2 71.9345;
#X obj 408 233 delread~ loop-del4 95.945;
#X obj 386 208 delread~ loop-del3 86.7545;
#X obj 325 538 delwrite~ loop-del3 86.7545;
#X obj 13 67 reverb-echo echo-del2 8.45346;
#X obj 13 91 reverb-echo echo-del3 13.4367;
#X obj 13 115 reverb-echo echo-del4 21.5463;
#X obj 13 139 reverb-echo echo-del5 34.3876;
#X obj 13 163 reverb-echo echo-del6 55.5437;
#X text 286 42 "early echo" generators \, which also increase echo
density. Open one to see what they do.;
#X text 300 115 Get the outputs of the recirculating delays. Add the
inputs to two of them.;
#X text 420 313 Do a power-conserving mix of them in pairs. First combine
(1 \, 2) and (3 \, 4)...;
#X text 402 385 ...then (1 \, 3) and (2 \, 4);
#X text 446 469 The two mixing stages have a combined gain of 2 \,
so the recirculation gain is limited to 0.5.;
#X text 586 542 Put the signals back into the;
#X text 584 557 recirculating delays.;
#X text 29 296 Tap outputs from here.;
#X text 708 381 0 to 100 to control reverb;
#X text 719 396 time.;
#X text 691 364 feedback gain on a scale of;
#X connect 0 0 1 0;
#X connect 1 0 30 0;
#X connect 1 1 30 1;
#X connect 2 0 4 0;
#X connect 2 0 6 0;
#X connect 2 0 8 0;
#X connect 3 0 5 0;
#X connect 3 0 6 1;
#X connect 3 0 8 1;
#X connect 6 0 10 0;
#X connect 6 0 12 0;
#X connect 7 0 12 1;
#X connect 7 0 10 1;
#X connect 8 0 11 0;
#X connect 8 0 13 0;
#X connect 9 0 11 1;
#X connect 9 0 13 1;
#X connect 10 0 16 0;
#X connect 11 0 15 0;
#X connect 12 0 14 0;
#X connect 13 0 17 0;
#X connect 14 0 29 0;
#X connect 15 0 23 0;
#X connect 16 0 22 0;
#X connect 17 0 24 0;
#X connect 18 0 20 0;
#X connect 19 0 17 1;
#X connect 19 0 16 1;
#X connect 19 0 15 1;
#X connect 19 0 14 1;
#X connect 20 0 21 0;
#X connect 21 0 19 0;
#X connect 25 0 2 1;
#X connect 26 0 3 1;
#X connect 27 0 7 1;
#X connect 27 0 9 1;
#X connect 28 0 7 0;
#X connect 28 0 9 0;
#X connect 30 0 31 0;
#X connect 30 1 31 1;
#X connect 31 0 32 0;
#X connect 31 1 32 1;
#X connect 32 0 33 0;
#X connect 32 1 33 1;
#X connect 33 0 34 0;
#X connect 33 1 34 1;
#X connect 34 0 2 0;
#X connect 34 1 3 0;
#X restore 694 124 pd reverb;
#X floatatom 770 100 0 0 100 0 - - -;
#X text 805 100 <-- feedback (100 maximum);
#X text 785 125 <-- open to see how it works;
#X obj 549 478 -~;
#X obj 549 454 *~ 3;
#X obj 586 460 *~ 2;
#X floatatom 549 358 0 0 0 0 - - -;
#X obj 549 430 clip~ 0 0.667;
#X text 599 357 <-- pitch;
#X obj 549 382 mtof;
#X msg 670 419 1;
#X obj 549 502 *~;
#X obj 549 406 phasor~ 0;
#X obj 670 467 tabread4~ dbtorms;
#X obj 670 443 adsr 100 100 2000 0 2000;
#N canvas 0 23 600 392 conversion-tables 0;
#N canvas 0 0 450 300 (subpatch) 0;
#X array dbtorms 123 float 1;
#A 0 0 0 1.25893e-05 1.41254e-05 1.58489e-05 1.77828e-05 1.99526e-05
2.23872e-05 2.51189e-05 2.81838e-05 3.16228e-05 3.54813e-05 3.98107e-05
4.46684e-05 5.01187e-05 5.62341e-05 6.30957e-05 7.07946e-05 7.94328e-05
8.91251e-05 0.0001 0.000112202 0.000125893 0.000141254 0.000158489
0.000177828 0.000199526 0.000223872 0.000251189 0.000281838 0.000316228
0.000354813 0.000398107 0.000446684 0.000501187 0.000562341 0.000630957
0.000707946 0.000794328 0.000891251 0.001 0.00112202 0.00125893 0.00141254
0.00158489 0.00177828 0.00199526 0.00223872 0.00251189 0.00281838 0.00316228
0.00354813 0.00398107 0.00446684 0.00501187 0.00562341 0.00630957 0.00707946
0.00794328 0.00891251 0.01 0.0112202 0.0125893 0.0141254 0.0158489
0.0177828 0.0199526 0.0223872 0.0251189 0.0281838 0.0316228 0.0354813
0.0398107 0.0446684 0.0501187 0.0562341 0.0630957 0.0707946 0.0794328
0.0891251 0.1 0.112202 0.125893 0.141254 0.158489 0.177828 0.199526
0.223872 0.251189 0.281838 0.316228 0.354813 0.398107 0.446684 0.501187
0.562341 0.630957 0.707946 0.794328 0.891251 1 1.12202 1.25893 1.41254
1.58489 1.77828 1.99526 2.23872 2.51189 2.81838 3.16228 3.54813 3.98107
4.46684 5.01187 5.62341 6.30957 7.07946 7.94328 8.91251 10 11.2202
12.5893;
#X coords 0 10 123 0 200 100 1;
#X restore 70 45 graph;
#X text 272 138 0;
#X text 274 38 10;
#X text 89 148 ------ 123 samples ------;
#N canvas 0 0 450 300 (subpatch) 0;
#X array mtof 130 float 1;
#A 0 8.1758 8.66196 9.17702 9.72272 10.3009 10.9134 11.5623 12.2499
12.9783 13.75 14.5676 15.4339 16.3516 17.3239 18.354 19.4454 20.6017
21.8268 23.1247 24.4997 25.9565 27.5 29.1352 30.8677 32.7032 34.6478
36.7081 38.8909 41.2034 43.6535 46.2493 48.9994 51.9131 55 58.2705
61.7354 65.4064 69.2957 73.4162 77.7817 82.4069 87.3071 92.4986 97.9989
103.826 110 116.541 123.471 130.813 138.591 146.832 155.563 164.814
174.614 184.997 195.998 207.652 220 233.082 246.942 261.626 277.183
293.665 311.127 329.628 349.228 369.994 391.995 415.305 440 466.164
493.883 523.251 554.365 587.33 622.254 659.255 698.456 739.989 783.991
830.609 880 932.328 987.767 1046.5 1108.73 1174.66 1244.51 1318.51
1396.91 1479.98 1567.98 1661.22 1760 1864.66 1975.53 2093 2217.46 2349.32
2489.02 2637.02 2793.83 2959.96 3135.96 3322.44 3520 3729.31 3951.07
4186.01 4434.92 4698.64 4978.03 5274.04 5587.65 5919.91 6271.93 6644.88
7040 7458.62 7902.13 8372.02 8869.84 9397.27 9956.06 10548.1 11175.3
11839.8 12543.9 13289.8 14080;
#X coords 0 12000 130 0 200 100 1;
#X restore 77 222 graph;
#X text 87 330 ------ 130 samples ------;
#X text 286 315 0;
#X text 288 215 12000;
#N canvas 244 212 672 338 regenerate-tables 0;
#X msg 415 84 bang;
#X obj 415 113 t b b;
#X obj 474 177 f;
#X obj 512 177 + 1;
#X msg 483 147 0;
#X obj 415 142 until;
#X obj 474 211 t f f;
#X obj 414 238 mtof;
#X obj 405 202 sel 129;
#X obj 413 264 tabwrite mtof;
#X obj 35 227 moses 2;
#X msg 19 76 bang;
#X obj 19 105 t b b;
#X obj 90 166 f;
#X obj 128 166 + 1;
#X msg 112 138 0;
#X obj 19 134 until;
#X obj 11 194 sel 122;
#X msg 35 258 0;
#X obj 79 259 dbtorms;
#X obj 90 194 t f f;
#X obj 35 291 tabwrite dbtorms;
#X text 18 49 bang to recalculate dbtorms table;
#X text 356 50 bang to recalculate the mtof table;
#X connect 0 0 1 0;
#X connect 1 0 5 0;
#X connect 1 1 4 0;
#X connect 2 0 3 0;
#X connect 2 0 6 0;
#X connect 2 0 8 0;
#X connect 3 0 2 1;
#X connect 4 0 2 1;
#X connect 5 0 2 0;
#X connect 6 0 7 0;
#X connect 6 1 9 1;
#X connect 7 0 9 0;
#X connect 8 0 5 1;
#X connect 10 0 18 0;
#X connect 10 1 19 0;
#X connect 11 0 12 0;
#X connect 12 0 16 0;
#X connect 12 1 15 0;
#X connect 13 0 14 0;
#X connect 13 0 17 0;
#X connect 13 0 20 0;
#X connect 14 0 13 1;
#X connect 15 0 13 1;
#X connect 16 0 13 0;
#X connect 17 0 16 1;
#X connect 18 0 21 0;
#X connect 19 0 21 0;
#X connect 20 0 10 0;
#X connect 20 1 21 1;
#X restore 375 76 pd regenerate-tables;
#X restore 669 381 pd conversion-tables;
#X obj 265 414 abs;
#X obj 271 493 abs;
#X obj 444 435 *~;
#X obj 198 398 * -1;
#X obj 400 437 *~;
#X floatatom 138 158 5 0 0 0 - - -;
#X floatatom 847 213 0 0 0 0 - - -;
#X obj 910 484 *~;
#X obj 1033 421 line~;
#X floatatom 1065 238 0 0 0 0 - - -;
#X text 896 135 PITCH SHIFTER;
#X obj 1033 395 pack 0 200;
#X obj 1065 212 r window;
#X obj 847 269 exp;
#X floatatom 847 295 6 0 0 0 - - -;
#X obj 847 385 /;
#X obj 974 315 * 0.001;
#X obj 1142 491 line~;
#X obj 1142 466 pack 0 200;
#X floatatom 1142 415 0 0 0 0 - - -;
#X obj 1142 389 r delay;
#X obj 910 510 +~;
#X obj 847 536 cos~;
#X obj 847 563 *~;
#X obj 847 592 +~;
#X obj 934 443 wrap~;
#X obj 1079 486 *~;
#X obj 1079 519 +~;
#X obj 1016 546 cos~;
#X obj 1016 573 *~;
#X msg 1261 170 \; transpose 0 \; window 100 \; delay 0;
#X obj 1261 144 loadbang;
#X obj 974 342 t b f;
#X floatatom 847 411 6 0 0 0 - - -;
#X obj 934 416 +~ 0.5;
#X obj 847 484 -~ 0.5;
#X obj 847 510 *~ 0.5;
#X obj 1016 485 -~ 0.5;
#X obj 1016 518 *~ 0.5;
#X obj 847 322 - 1;
#X obj 847 243 * 0.05776;
#X obj 847 348 * -1;
#X text 881 212 <-- transposition;
#X text 924 225 (halftones);
#X text 910 289 speed;
#X text 909 303 change;
#X text 1109 237 <--window (msec);
#X text 882 378 tape head;
#N canvas 0 23 612 637 test-input 0;
#N canvas 0 0 450 300 (subpatch) 0;
#X array array1 176400 float 0;
#X coords 0 1 176399 -1 200 150 1;
#X restore 150 141 graph;
#X obj 139 518 tabread4~ array1;
#X obj 139 333 r totsamps;
#X obj 139 413 /;
#X obj 139 465 *~ 0;
#X obj 139 439 phasor~ 0;
#X obj 139 492 +~ 1;
#X msg 139 386 44100;
#X obj 139 360 t b f;
#X obj 182 469 r totsamps;
#X text 153 538 sample loop for;
#X text 153 555 test signal;
#X obj 162 30 loadbang;
#X obj 139 590 outlet~;
#X obj 393 169 r readfile;
#X obj 393 199 symbol;
#X msg 392 228 read -resize \$1 array1;
#X obj 392 256 soundfiler;
#X obj 392 284 s totsamps;
#X msg 161 64 \; readfile ./data/AM_GuitVerber120A-06.wav;
#X connect 1 0 13 0;
#X connect 2 0 8 0;
#X connect 3 0 5 0;
#X connect 4 0 6 0;
#X connect 5 0 4 0;
#X connect 6 0 1 0;
#X connect 7 0 3 0;
#X connect 8 0 7 0;
#X connect 8 1 3 1;
#X connect 9 0 4 1;
#X connect 12 0 19 0;
#X connect 14 0 15 0;
#X connect 15 0 16 0;
#X connect 16 0 17 0;
#X connect 17 0 18 0;
#X restore 1092 137 pd test-input;
#X obj 847 442 phasor~;
#X obj 1142 442 max 1.5;
#X text 1145 348 delay;
#X text 1142 366 (msec);
#X obj 1065 265 max 1;
#X text 883 391 rotation freq;
#X obj 910 536 vd~ G09-del;
#X obj 1079 548 vd~ G09-del;
#X obj 1092 168 delwrite~ G09-del 5000;
#X floatatom 1020 168 5 0 0 0 - - -;
#X obj 645 46 abs;
#X obj 1137 307 * 100;
#X obj 279 192 * 0.5;
#X obj 540 545 *~;
#X obj 279 665 output~;
#X obj 280 629 *~;
#X floatatom 311 567 5 0 0 0 - - -;
#X obj 311 594 / 100;
#X obj 26 413 route volume;
#X msg 208 30 read -resize data/AM_ConvLoop120G-05.wav loop;
#X obj 271 463 * 100;
#X obj 154 117 + 0.1;
#X obj 411 648 osc~ 400;
#X obj 411 620 noise~;
#X obj 522 73 * 100;
#X obj 264 388 * 50;
#X connect 0 0 1 0;
#X connect 1 0 3 0;
#X connect 1 0 4 0;
#X connect 1 0 5 0;
#X connect 1 0 6 0;
#X connect 1 0 7 0;
#X connect 1 0 133 0;
#X connect 2 0 0 0;
#X connect 3 0 13 0;
#X connect 3 0 15 0;
#X connect 3 0 17 0;
#X connect 4 0 8 0;
#X connect 5 0 10 0;
#X connect 6 0 11 0;
#X connect 7 0 71 0;
#X connect 8 0 136 0;
#X connect 9 0 131 0;
#X connect 12 0 69 0;
#X connect 12 0 135 0;
#X connect 12 0 140 0;
#X connect 13 0 12 0;
#X connect 13 1 104 1;
#X connect 14 0 139 0;
#X connect 15 0 14 0;
#X connect 17 0 16 0;
#X connect 18 0 22 1;
#X connect 19 0 18 1;
#X connect 20 0 36 0;
#X connect 21 0 37 0;
#X connect 22 0 21 0;
#X connect 23 0 19 0;
#X connect 24 0 25 0;
#X connect 25 0 23 0;
#X connect 36 0 22 0;
#X connect 41 0 134 0;
#X connect 42 0 43 1;
#X connect 42 0 44 0;
#X connect 43 0 47 0;
#X connect 44 0 46 0;
#X connect 45 0 43 0;
#X connect 46 0 45 0;
#X connect 47 0 61 1;
#X connect 49 0 70 0;
#X connect 49 1 68 0;
#X connect 50 0 49 1;
#X connect 53 0 61 0;
#X connect 54 0 53 0;
#X connect 55 0 53 1;
#X connect 56 0 59 0;
#X connect 56 0 60 0;
#X connect 57 0 54 0;
#X connect 59 0 62 0;
#X connect 60 0 64 0;
#X connect 61 0 49 0;
#X connect 62 0 55 0;
#X connect 62 0 57 0;
#X connect 63 0 61 1;
#X connect 64 0 63 0;
#X connect 66 0 56 0;
#X connect 67 0 50 0;
#X connect 68 0 130 0;
#X connect 68 0 128 0;
#X connect 70 0 130 0;
#X connect 70 0 128 0;
#X connect 71 0 127 0;
#X connect 72 0 106 0;
#X connect 73 0 87 0;
#X connect 74 0 73 1;
#X connect 74 0 92 1;
#X connect 75 0 119 0;
#X connect 77 0 74 0;
#X connect 78 0 75 0;
#X connect 79 0 80 0;
#X connect 80 0 105 0;
#X connect 81 0 99 0;
#X connect 82 0 98 0;
#X connect 83 0 87 1;
#X connect 83 0 93 1;
#X connect 84 0 83 0;
#X connect 85 0 116 0;
#X connect 86 0 85 0;
#X connect 87 0 121 0;
#X connect 88 0 89 0;
#X connect 89 0 90 0;
#X connect 90 0 128 0;
#X connect 91 0 92 0;
#X connect 91 0 103 0;
#X connect 92 0 93 0;
#X connect 93 0 122 0;
#X connect 94 0 95 0;
#X connect 95 0 90 1;
#X connect 95 0 128 0;
#X connect 97 0 96 0;
#X connect 98 0 81 0;
#X connect 98 1 81 1;
#X connect 99 0 115 0;
#X connect 100 0 91 0;
#X connect 101 0 102 0;
#X connect 102 0 88 0;
#X connect 103 0 104 0;
#X connect 104 0 94 0;
#X connect 105 0 107 0;
#X connect 106 0 79 0;
#X connect 107 0 81 0;
#X connect 114 0 123 0;
#X connect 115 0 73 0;
#X connect 115 0 100 0;
#X connect 115 0 101 0;
#X connect 116 0 84 0;
#X connect 119 0 82 0;
#X connect 119 0 77 0;
#X connect 121 0 89 1;
#X connect 122 0 95 1;
#X connect 122 0 128 0;
#X connect 124 0 75 0;
#X connect 125 0 72 0;
#X connect 125 0 75 0;
#X connect 125 0 126 0;
#X connect 125 0 102 1;
#X connect 125 0 103 1;
#X connect 126 0 85 0;
#X connect 127 0 68 1;
#X connect 127 0 70 1;
#X connect 128 0 130 0;
#X connect 130 0 129 0;
#X connect 130 0 129 1;
#X connect 131 0 132 0;
#X connect 132 0 130 1;
#X connect 133 0 9 0;
#X connect 134 0 42 0;
#X connect 135 0 67 0;
#X connect 136 0 128 1;
#X connect 139 0 125 0;
#X connect 140 0 66 0;
