#N canvas 233 69 1142 715 12;
#X obj 16 75 oscparse;
#X obj 17 98 list trim;
#X obj 16 53 netreceive -u -b 32901;
#X obj 20 248 route accell;
#X obj 20 135 route hand;
#X obj 27 515 route merge;
#X obj 101 99 route init;
#X obj 15 189 route eraser;
#X floatatom 37 161 5 0 0 0 - - -;
#X floatatom 71 542 5 0 0 0 - - -;
#X floatatom 103 128 5 0 0 0 - - -;
#X floatatom 63 411 5 0 0 0 - - -;
#X obj 63 386 route x;
#X floatatom 62 361 5 0 0 0 - - -;
#X obj 61 333 route y;
#X floatatom 61 305 5 0 0 0 - - -;
#X obj 61 275 route z;
#X floatatom 33 218 5 0 0 0 - - -;
#X obj 27 452 route volume;
#X floatatom 78 482 5 0 0 0 - - -;
#X msg 942 421 1;
#X obj 943 508 % 5, f 4;
#X floatatom 942 478 5 0 0 0 - - -;
#X obj 942 448 + 1;
#X floatatom 942 544 5 0 0 0 - - -;
#X obj 941 574 sel 0 1 2 3 4;
#X floatatom 856 679 5 0 0 0 - - -;
#X obj 856 648 + 1;
#X msg 855 614 1;
#X floatatom 920 675 5 0 0 0 - - -;
#X obj 919 641 + 1;
#X msg 918 607 1;
#X floatatom 977 674 5 0 0 0 - - -;
#X obj 983 643 + 1;
#X msg 987 611 1;
#X floatatom 1033 675 5 0 0 0 - - -;
#X obj 1032 641 + 1;
#X msg 1031 607 1;
#X floatatom 1079 677 5 0 0 0 - - -;
#X obj 1078 643 + 1;
#X msg 1077 609 1;
#X obj 940 390 sel 0 1;
#X obj 1001 448 r counter;
#X obj 111 305 s z;
#X obj 112 362 s y;
#X obj 113 412 s x;
#X obj 73 572 s merge;
#X obj 940 362 r merge;
#X obj 80 218 s eraser;
#X obj 84 161 s hand;
#X obj 151 129 s init;
#X text 14 20 receive data from server;
#X obj 240 56 loadbang;
#X msg 240 82 \; counter 0;
#X text 236 23 init values;
#X obj 297 478 output~;
#X obj 304 421 osc~ 400;
#X obj 370 448 *~;
#X obj 392 383 r x;
#X obj 393 413 * 10;
#X floatatom 417 448 5 0 0 0 - - -;
#X connect 0 0 1 0;
#X connect 1 0 3 0;
#X connect 1 0 4 0;
#X connect 1 0 5 0;
#X connect 1 0 6 0;
#X connect 1 0 7 0;
#X connect 1 0 18 0;
#X connect 2 0 0 0;
#X connect 3 0 12 0;
#X connect 3 0 14 0;
#X connect 3 0 16 0;
#X connect 4 0 8 0;
#X connect 5 0 9 0;
#X connect 6 0 10 0;
#X connect 7 0 17 0;
#X connect 8 0 49 0;
#X connect 9 0 46 0;
#X connect 10 0 50 0;
#X connect 11 0 45 0;
#X connect 12 0 11 0;
#X connect 13 0 44 0;
#X connect 14 0 13 0;
#X connect 15 0 43 0;
#X connect 16 0 15 0;
#X connect 17 0 48 0;
#X connect 18 0 19 0;
#X connect 20 0 23 0;
#X connect 21 0 24 0;
#X connect 22 0 23 1;
#X connect 22 0 21 0;
#X connect 23 0 22 0;
#X connect 24 0 25 0;
#X connect 25 0 28 0;
#X connect 25 1 31 0;
#X connect 25 2 34 0;
#X connect 25 3 37 0;
#X connect 25 4 40 0;
#X connect 26 0 27 1;
#X connect 27 0 26 0;
#X connect 28 0 27 0;
#X connect 29 0 30 1;
#X connect 30 0 29 0;
#X connect 31 0 30 0;
#X connect 32 0 33 1;
#X connect 33 0 32 0;
#X connect 34 0 33 0;
#X connect 35 0 36 1;
#X connect 36 0 35 0;
#X connect 37 0 36 0;
#X connect 38 0 39 1;
#X connect 39 0 38 0;
#X connect 40 0 39 0;
#X connect 41 1 20 0;
#X connect 42 0 22 0;
#X connect 42 0 26 0;
#X connect 42 0 29 0;
#X connect 42 0 32 0;
#X connect 42 0 35 0;
#X connect 42 0 38 0;
#X connect 47 0 41 0;
#X connect 52 0 53 0;
#X connect 56 0 57 0;
#X connect 57 0 55 0;
#X connect 57 0 55 1;
#X connect 58 0 59 0;
#X connect 59 0 57 1;
#X connect 59 0 60 0;
